# xmcd
#
# Track frame offsets: 
#        150
#        23820
#        38483
#        50516
#        63607
#        76552
#        93260
#        109340
#        120865
#        138858
#        151810
#        165110
#        175557
#        189110
#        203776
#        216262
#        231489
#        248353
#
# Disc length: 3616 seconds
#
# Revision: 4
# Processed by: cddbd v1.5.2PL0 Copyright (c) Steve Scherf et al.
# Submitted via: ExactAudioCopy v1.0b1
#
DISCID=cf0e1e12
DTITLE=B.B. King - My Kind of Blues [Ace]
DYEAR=2003
DGENRE=Blues
TTITLE0=You Done Lost Your Good Thing Now (mono)
TTITLE1=Mr Pawn Broker (mono)
TTITLE2=Understand (mono)
TTITLE3=Someday Baby (mono)
TTITLE4=Driving Wheel (mono)
TTITLE5=Walking Dr. Bill (mono)
TTITLE6=My Own Fault, Baby (mono)
TTITLE7=Cat Fish Blues (Fishin' After Me) (mono)
TTITLE8=Hold That Train (mono)
TTITLE9=Please Set The Date (mono)
TTITLE10=Sunny Road (stereo)
TTITLE11=Running Wild (stereo)
TTITLE12=Blues At Sunrise (stereo)
TTITLE13=Drifting Blues (stereo)
TTITLE14=Somebody Done Changed The Lock On My Door (stereo)
TTITLE15=Looking The World Over (mono)
TTITLE16=Walking Dr. Bill (overdubbed) (mono)
TTITLE17=Hold That Train (alt - take 1) (stereo)
EXTD=ID3G:   0
EXTT0=
EXTT1=
EXTT2=
EXTT3=
EXTT4=
EXTT5=
EXTT6=
EXTT7=
EXTT8=
EXTT9=
EXTT10=
EXTT11=
EXTT12=
EXTT13=
EXTT14=
EXTT15=
EXTT16=
EXTT17=
PLAYORDER=
